<svg xmlns="http://www.w3.org/2000/svg" width="24" height="24" viewBox="0 0 24 24" fill="none" stroke="#ffffff" stroke-width="1.5" stroke-linecap="round" stroke-linejoin="round" class="icon icon-tabler icons-tabler-outline icon-tabler-brand-instagram" style=""><path stroke="none" d="M0 0h24v24H0z" fill="none" class="YuzHcMMF_0"></path><path d="M4 8a4 4 0 0 1 4 -4h8a4 4 0 0 1 4 4v8a4 4 0 0 1 -4 4h-8a4 4 0 0 1 -4 -4l0 -8" class="YuzHcMMF_1"></path><path d="M9 12a3 3 0 1 0 6 0a3 3 0 0 0 -6 0" class="YuzHcMMF_2"></path><path d="M16.5 7.5v.01" class="YuzHcMMF_3"></path><style data-made-with="vivus-instant">.YuzHcMMF_0{stroke-dasharray:96 98;stroke-dashoffset:97;animation:YuzHcMMF_draw_0 7200ms linear 0ms infinite,YuzHcMMF_fade 7200ms linear 0ms infinite;}.YuzHcMMF_1{stroke-dasharray:58 60;stroke-dashoffset:59;animation:YuzHcMMF_draw_1 7200ms linear 0ms infinite,YuzHcMMF_fade 7200ms linear 0ms infinite;}.YuzHcMMF_2{stroke-dasharray:19 21;stroke-dashoffset:20;animation:YuzHcMMF_draw_2 7200ms linear 0ms infinite,YuzHcMMF_fade 7200ms linear 0ms infinite;}.YuzHcMMF_3{stroke-dasharray:1 3;stroke-dashoffset:2;animation:YuzHcMMF_draw_3 7200ms linear 0ms infinite,YuzHcMMF_fade 7200ms linear 0ms infinite;}@keyframes YuzHcMMF_draw{100%{stroke-dashoffset:0;}}@keyframes YuzHcMMF_fade{0%{stroke-opacity:1;}94.44444444444444%{stroke-opacity:1;}100%{stroke-opacity:0;}}@keyframes YuzHcMMF_draw_0{11.11111111111111%{stroke-dashoffset: 97}38.88888888888889%{ stroke-dashoffset: 0;}100%{ stroke-dashoffset: 0;}}@keyframes YuzHcMMF_draw_1{15.740740740740739%{stroke-dashoffset: 59}43.51851851851851%{ stroke-dashoffset: 0;}100%{ stroke-dashoffset: 0;}}@keyframes YuzHcMMF_draw_2{20.37037037037037%{stroke-dashoffset: 20}48.148148148148145%{ stroke-dashoffset: 0;}100%{ stroke-dashoffset: 0;}}@keyframes YuzHcMMF_draw_3{25%{stroke-dashoffset: 2}52.77777777777778%{ stroke-dashoffset: 0;}100%{ stroke-dashoffset: 0;}}</style></svg>